<svg xmlns="http://www.w3.org/2000/svg" xmlns:svg="http://www.w3.org/2000/svg" id="svg8120" width="303.974" height="133.417" version="1.1" viewBox="0 0 284.975 125.079"><defs id="defs8122"><marker style="overflow:visible" id="marker11155" orient="auto" refX="0" refY="0"><path id="path11157" d="M 8.7185878,4.0337352 -2.2072895,0.01601326 8.7185884,-4.0017078 c -1.7454984,2.3720609 -1.7354408,5.6174519 -6e-7,8.035443 z" transform="scale(-0.6,-0.6)" style="fill:#000;fill-opacity:1;fill-rule:evenodd;stroke:#000;stroke-width:.625;stroke-linejoin:round;stroke-opacity:1"/></marker><marker id="marker11031" orient="auto" refX="0" refY="0" style="overflow:visible"><path id="path11033" style="fill:#000;fill-opacity:1;fill-rule:evenodd;stroke:#000;stroke-width:.625;stroke-linejoin:round;stroke-opacity:1" d="M 8.7185878,4.0337352 -2.2072895,0.01601326 8.7185884,-4.0017078 c -1.7454984,2.3720609 -1.7354408,5.6174519 -6e-7,8.035443 z" transform="scale(-0.6,-0.6)"/></marker><marker style="overflow:visible" id="marker10791" orient="auto" refX="0" refY="0"><path id="path10793" d="M 8.7185878,4.0337352 -2.2072895,0.01601326 8.7185884,-4.0017078 c -1.7454984,2.3720609 -1.7354408,5.6174519 -6e-7,8.035443 z" transform="scale(-0.6,-0.6)" style="fill:#000;fill-opacity:1;fill-rule:evenodd;stroke:#000;stroke-width:.625;stroke-linejoin:round;stroke-opacity:1"/></marker><marker style="overflow:visible" id="marker9859" orient="auto" refX="0" refY="0"><path id="path9861" d="M 8.7185878,4.0337352 -2.2072895,0.01601326 8.7185884,-4.0017078 c -1.7454984,2.3720609 -1.7354408,5.6174519 -6e-7,8.035443 z" transform="scale(-0.6,-0.6)" style="fill:#000;fill-opacity:1;fill-rule:evenodd;stroke:#000;stroke-width:.625;stroke-linejoin:round;stroke-opacity:1"/></marker><marker id="Arrow2Mend" orient="auto" refX="0" refY="0" style="overflow:visible"><path id="path4528" style="fill:#000;fill-opacity:1;fill-rule:evenodd;stroke:#000;stroke-width:.625;stroke-linejoin:round;stroke-opacity:1" d="M 8.7185878,4.0337352 -2.2072895,0.01601326 8.7185884,-4.0017078 c -1.7454984,2.3720609 -1.7354408,5.6174519 -6e-7,8.035443 z" transform="scale(-0.6,-0.6)"/></marker><marker id="Arrow2Mend-2-5" orient="auto" refX="0" refY="0" style="overflow:visible"><path id="path4528-3-9" style="fill:#000;fill-opacity:1;fill-rule:evenodd;stroke:#000;stroke-width:.625;stroke-linejoin:round;stroke-opacity:1" d="M 8.7185878,4.0337352 -2.2072895,0.01601326 8.7185884,-4.0017078 c -1.7454984,2.3720609 -1.7354408,5.6174519 -6e-7,8.035443 z" transform="scale(-0.6,-0.6)"/></marker><marker style="overflow:visible" id="marker9859-9" orient="auto" refX="0" refY="0"><path id="path9861-3" d="M 8.7185878,4.0337352 -2.2072895,0.01601326 8.7185884,-4.0017078 c -1.7454984,2.3720609 -1.7354408,5.6174519 -6e-7,8.035443 z" transform="scale(-0.6,-0.6)" style="fill:#000;fill-opacity:1;fill-rule:evenodd;stroke:#000;stroke-width:.625;stroke-linejoin:round;stroke-opacity:1"/></marker><marker id="marker11031-8" orient="auto" refX="0" refY="0" style="overflow:visible"><path id="path11033-9" style="fill:#000;fill-opacity:1;fill-rule:evenodd;stroke:#000;stroke-width:.625;stroke-linejoin:round;stroke-opacity:1" d="M 8.7185878,4.0337352 -2.2072895,0.01601326 8.7185884,-4.0017078 c -1.7454984,2.3720609 -1.7354408,5.6174519 -6e-7,8.035443 z" transform="scale(-0.6,-0.6)"/></marker></defs><metadata id="metadata8125"/><g id="layer1" transform="translate(9.6135842,-927.81499)"><g id="g8676" transform="translate(-7.0760988e-6,26.574814)"><rect id="rect8130" width="70.866" height="17.717" x="35.433" y="910.63" style="fill:#fff;fill-opacity:1;stroke:#000;stroke-width:1.0629921;stroke-miterlimit:4;stroke-dasharray:none;stroke-opacity:1"/><text id="text8672" x="54.535" y="923.275" style="font-style:normal;font-weight:400;font-size:18.75px;line-height:125%;font-family:sans-serif;letter-spacing:0;word-spacing:0;fill:#000;fill-opacity:1;stroke:none;stroke-width:1px;stroke-linecap:butt;stroke-linejoin:miter;stroke-opacity:1" xml:space="preserve"><tspan style="font-size:13.75px" id="tspan8674" x="54.535" y="923.275">p(...)</tspan></text></g><g id="g8681" transform="translate(-7.0760988e-6,62.007885)"><rect style="fill:#fff;fill-opacity:1;stroke:#000;stroke-width:1.0629921;stroke-miterlimit:4;stroke-dasharray:none;stroke-opacity:1" id="rect8683" width="70.866" height="17.717" x="35.433" y="910.63"/><text xml:space="preserve" style="font-style:normal;font-weight:400;font-size:18.75px;line-height:125%;font-family:sans-serif;letter-spacing:0;word-spacing:0;fill:#000;fill-opacity:1;stroke:none;stroke-width:1px;stroke-linecap:butt;stroke-linejoin:miter;stroke-opacity:1" id="text8685" x="54.535" y="923.275"><tspan id="tspan8687" x="54.535" y="923.275" style="font-size:13.75px">p(...)</tspan></text></g><g id="g8689" transform="translate(-6.8057659e-6,115.15748)"><rect id="rect8691" width="70.866" height="17.717" x="35.433" y="910.63" style="fill:#fff;fill-opacity:1;stroke:#000;stroke-width:1.0629921;stroke-miterlimit:4;stroke-dasharray:none;stroke-opacity:1"/><text id="text8693" x="54.535" y="923.275" style="font-style:normal;font-weight:400;font-size:18.75px;line-height:125%;font-family:sans-serif;letter-spacing:0;word-spacing:0;fill:#000;fill-opacity:1;stroke:none;stroke-width:1px;stroke-linecap:butt;stroke-linejoin:miter;stroke-opacity:1" xml:space="preserve"><tspan style="font-size:13.75px" id="tspan8695" x="54.535" y="923.275">p(...)</tspan></text></g><circle style="fill:#000;fill-opacity:1;stroke:none;stroke-width:1.0629921;stroke-miterlimit:4;stroke-dasharray:none;stroke-opacity:1" id="path8705" cx="70.866" cy="999.213" r="2.215"/><circle id="circle8707" cx="70.866" cy="1008.071" r="2.215" style="fill:#000;fill-opacity:1;stroke:none;stroke-width:1.0629921;stroke-miterlimit:4;stroke-dasharray:none;stroke-opacity:1"/><circle style="fill:#000;fill-opacity:1;stroke:none;stroke-width:1.0629921;stroke-miterlimit:4;stroke-dasharray:none;stroke-opacity:1" id="circle8709" cx="70.866" cy="1016.929" r="2.215"/><path style="fill:none;fill-rule:evenodd;stroke:#000;stroke-width:.99921262;stroke-linecap:butt;stroke-linejoin:miter;stroke-miterlimit:4;stroke-dasharray:none;stroke-opacity:1;marker-end:url(#Arrow2Mend)" id="path8711" d="m -6.535433e-6,981.49609 35.433070535433,0"/><path style="fill:none;fill-rule:evenodd;stroke:#000;stroke-width:.99921262;stroke-linecap:butt;stroke-linejoin:miter;stroke-miterlimit:4;stroke-dasharray:none;stroke-opacity:1;marker-end:url(#marker10791)" id="path8711-9" d="m -0.75533063,946.07262 35.43307063,0"/><path style="fill:none;fill-rule:evenodd;stroke:#000;stroke-width:.99921262;stroke-linecap:butt;stroke-linejoin:miter;stroke-miterlimit:4;stroke-dasharray:none;stroke-opacity:1;marker-end:url(#Arrow2Mend-2-5)" id="path8711-9-4" d="m -0.75533068,1034.6553 35.43307068,0"/><path id="path9853" d="m 107.05453,981.48649 34.67774,0.01" style="fill:none;fill-rule:evenodd;stroke:#000;stroke-width:.99921262;stroke-linecap:butt;stroke-linejoin:miter;stroke-miterlimit:4;stroke-dasharray:none;stroke-opacity:1;marker-end:url(#marker9859)"/><path style="fill:none;fill-rule:evenodd;stroke:#000;stroke-width:1px;stroke-linecap:butt;stroke-linejoin:miter;stroke-opacity:1" id="path10133" d="m 141.73229,946.063 0,88.5827 35.43307,0 c 26.57481,0 53.14961,-17.7165 53.14961,-44.29135 0,-26.5748 -26.5748,-44.29135 -53.14961,-44.29135 z"/><path id="path9853-3" d="m 230.31497,990.35435 34.67774,0.01" style="fill:none;fill-rule:evenodd;stroke:#000;stroke-width:.99921262;stroke-linecap:butt;stroke-linejoin:miter;stroke-miterlimit:4;stroke-dasharray:none;stroke-opacity:1;marker-end:url(#marker9859-9)"/><path style="fill:none;fill-rule:evenodd;stroke:#000;stroke-width:1.06299222;stroke-linecap:butt;stroke-linejoin:miter;stroke-miterlimit:4;stroke-dasharray:none;stroke-opacity:1;marker-end:url(#marker11031)" id="path11023" d="m 106.2992,946.063 c 17.71654,0 17.71654,0 17.71654,0 l 0,17.71653 17.71653,0"/><path style="fill:none;fill-rule:evenodd;stroke:#000;stroke-width:1.06299222;stroke-linecap:butt;stroke-linejoin:miter;stroke-miterlimit:4;stroke-dasharray:none;stroke-opacity:1;marker-end:url(#marker11031-8)" id="path11023-6" d="m 106.29921,1034.6457 c 17.71654,0 17.71654,0 17.71654,0 l 0,-17.7165 17.71653,0"/></g></svg>