<svg xmlns="http://www.w3.org/2000/svg" xmlns:svg="http://www.w3.org/2000/svg" id="Layer_1" width="55" height="55" x="0" y="0" enable-background="new 0 0 425.2 226.8" version="1.1" viewBox="0 0 55 55" xml:space="preserve"><metadata id="metadata18"/><defs id="defs16"><linearGradient id="SVGID_1_" x1="3.749" x2="420.67" y1="113.385" y2="113.385" gradientTransform="translate(-5.9,-85.700006)" gradientUnits="userSpaceOnUse"><stop offset="0" style="stop-color:#1a1c54" id="stop8"/><stop offset=".543" style="stop-color:#2a3172" id="stop10"/></linearGradient><clipPath id="clipPath5697-7" clipPathUnits="userSpaceOnUse"><rect id="rect5699-5" width="11.8" height="55.197" x="165.3" y=".001" style="color:#000;clip-rule:nonzero;display:inline;overflow:visible;visibility:visible;opacity:.47900008;isolation:auto;mix-blend-mode:normal;color-interpolation:sRGB;color-interpolation-filters:linearRGB;solid-color:#000;solid-opacity:1;fill:#968796;fill-opacity:1;fill-rule:nonzero;stroke:none;stroke-width:1;stroke-linecap:square;stroke-linejoin:miter;stroke-miterlimit:4;stroke-dasharray:none;stroke-dashoffset:0;stroke-opacity:1;color-rendering:auto;image-rendering:auto;shape-rendering:auto;text-rendering:auto;enable-background:accumulate"/></clipPath><filter style="color-interpolation-filters:sRGB" id="filter895" width="2" height="2" x="-.5" y="-.5"><feGaussianBlur id="feGaussianBlur897" stdDeviation="4"/></filter><filter style="color-interpolation-filters:sRGB" id="filter936"/></defs><g id="g147" transform="matrix(1.0185185,0,0,1.0185185,-0.50925926,-0.50925926)" style="stroke-width:.9818182"><circle id="path128" cx="27.5" cy="27.5" r="27" style="color:#000;clip-rule:nonzero;display:inline;overflow:visible;visibility:visible;opacity:1;isolation:auto;mix-blend-mode:normal;color-interpolation:sRGB;color-interpolation-filters:linearRGB;solid-color:#000;solid-opacity:1;fill:#fff;fill-opacity:1;fill-rule:nonzero;stroke:none;stroke-width:.9818182;stroke-linecap:square;stroke-linejoin:miter;stroke-miterlimit:4;stroke-dasharray:none;stroke-dashoffset:0;stroke-opacity:1;color-rendering:auto;image-rendering:auto;shape-rendering:auto;text-rendering:auto;enable-background:accumulate"/><path clip-path="none" style="opacity:1;fill:#2a3172;fill-opacity:1;stroke-width:.98181832" id="path12-2" d="m 32.39626,4.540639 v 19.202899 c -2.000293,2.083333 -2.174232,6.34058 -0.260908,10.416666 v 0 c 1.043633,2.173913 1.652419,4.619565 1.652418,7.065217 l 10e-7,6.431159 c 0,2.898552 -2.261203,5.344203 -5.131193,5.344203 l -0.08696,1e-6 c -2.783021,-1e-6 -5.131194,-2.355073 -5.131194,-5.344204 l 10e-7,-6.34058 c 0,-2.445651 0.608784,-4.891304 1.652417,-7.065216 v 0 C 27.004159,30.174698 26.83022,25.826871 24.829924,23.834119 V 4.5406389 Z m -7.566334,-0.6340579 -1.130602,-0.9057977 10.001478,2e-7 -1.130603,0.9057973 z M 23.525385,3.2725224 V 22.928321 c 0.290099,0.159801 0.561274,0.275741 0.869696,0.452899 V 4.3594791 Z M 33.787771,22.83774 V 3.1819431 L 32.918078,4.3594789 V 23.29064 Z"/></g></svg>