<svg xmlns="http://www.w3.org/2000/svg" xmlns:svg="http://www.w3.org/2000/svg" id="Layer_1" width="55" height="55" x="0" y="0" enable-background="new 0 0 425.2 226.8" version="1.1" viewBox="0 0 55 55" xml:space="preserve"><metadata id="metadata18"/><defs id="defs16"><linearGradient id="SVGID_1_" x1="3.749" x2="420.67" y1="113.385" y2="113.385" gradientTransform="translate(-5.9,-85.700006)" gradientUnits="userSpaceOnUse"><stop offset="0" style="stop-color:#1a1c54" id="stop8"/><stop offset=".543" style="stop-color:#2a3172" id="stop10"/></linearGradient><clipPath id="clipPath5697-7" clipPathUnits="userSpaceOnUse"><rect id="rect5699-5" width="11.8" height="55.197" x="165.3" y=".001" style="color:#000;clip-rule:nonzero;display:inline;overflow:visible;visibility:visible;opacity:.47900008;isolation:auto;mix-blend-mode:normal;color-interpolation:sRGB;color-interpolation-filters:linearRGB;solid-color:#000;solid-opacity:1;fill:#968796;fill-opacity:1;fill-rule:nonzero;stroke:none;stroke-width:1;stroke-linecap:square;stroke-linejoin:miter;stroke-miterlimit:4;stroke-dasharray:none;stroke-dashoffset:0;stroke-opacity:1;color-rendering:auto;image-rendering:auto;shape-rendering:auto;text-rendering:auto;enable-background:accumulate"/></clipPath><filter style="color-interpolation-filters:sRGB" id="filter895" width="2" height="2" x="-.5" y="-.5"><feGaussianBlur id="feGaussianBlur897" stdDeviation="4"/></filter><filter style="color-interpolation-filters:sRGB" id="filter936"/></defs><rect style="color:#000;clip-rule:nonzero;display:inline;overflow:visible;visibility:visible;opacity:1;isolation:auto;mix-blend-mode:normal;color-interpolation:sRGB;color-interpolation-filters:linearRGB;solid-color:#000;solid-opacity:1;fill:#fcfbfd;fill-opacity:1;fill-rule:nonzero;stroke:#2a3172;stroke-width:1;stroke-linecap:square;stroke-linejoin:miter;stroke-miterlimit:4;stroke-dasharray:none;stroke-dashoffset:0;stroke-opacity:1;color-rendering:auto;image-rendering:auto;shape-rendering:auto;text-rendering:auto;enable-background:accumulate" id="rect1370" width="54" height="54" x=".5" y=".5" ry="4.555"/><path id="path12-2" d="M 31.413354,3.2325166 V 23.096249 c -2.06913,2.155027 -2.249055,6.558779 -0.269887,10.775136 v 0 c 1.079548,2.248725 1.709285,4.778539 1.709285,7.308354 v 6.652476 c 0,2.9983 -2.33902,5.528115 -5.307774,5.528115 h -0.08996 c -2.878793,0 -5.307774,-2.436118 -5.307774,-5.528115 v -6.558779 c 0,-2.529815 0.629736,-5.059629 1.709284,-7.308353 v 0 C 25.835695,29.748725 25.65577,25.251276 23.586639,23.189946 V 3.2325166 Z M 23.586639,2.5766389 22.417128,1.63967 h 10.345661 l -1.16951,0.9369689 z M 22.237204,1.9207605 V 22.252978 c 0.300083,0.1653 0.58059,0.285229 0.899624,0.468484 V 3.045123 Z M 32.852752,22.15928 V 1.8270637 L 31.953129,3.045123 v 19.582642 z" style="opacity:1;fill:#2a3172;fill-opacity:1;stroke-width:.99999994" clip-path="none"/></svg>